<!-- Generator: Adobe Illustrator 16.0.0, SVG Export Plug-In . SVG Version: 6.00 Build 0)  -->
<svg xmlns:rdf="http://www.w3.org/1999/02/22-rdf-syntax-ns#" xmlns="http://www.w3.org/2000/svg" enable-background="new 0 0 1296 1296" xml:space="preserve" height="106.14" viewBox="0 0 250 106.14" width="250" version="1.1" y="0px" x="0px" xmlns:cc="http://creativecommons.org/ns#" xmlns:dc="http://purl.org/dc/elements/1.1/"><metadata><rdf:RDF><cc:Work rdf:about=""><dc:format>image/svg+xml</dc:format><dc:type rdf:resource="http://purl.org/dc/dcmitype/StillImage"/><dc:title/></cc:Work></rdf:RDF></metadata><g transform="matrix(1.25,0,0,-1.25,-347.95,169.85)" fill-rule="nonzero"><path fill="#000" d="m460.93,83.241,1.57,8.198-5.61,0-1.6-8.198-4.24,0,3.78,19.479,4.25,0-1.48-7.541,5.63,0,1.48,7.541,4.25,0-3.79-19.479m-20.74,0-4.34,10.48,0,0.05,7.74,8.939,4.63,0-7.92-8.804,4.57-10.667-4.68,0zm-11.11,0,3.81,19.479,4.24,0-3.81-19.479m-16.72,0,0.32,1.642,2.57,0,3.18,16.187-2.61,0,0.32,1.65,9.45,0-0.32-1.65-2.6,0-3.17-16.187,2.62,0-0.34-1.642m-12.98,15.895-3.08-15.898-4.25,0,3.08,15.898-5.22,0,0.7,3.584,14.68,0-0.71-3.584m-22.2,0.422-0.23,0-4.31-9.128,5.2,0-0.75,9.128zm1.18-16.317-0.34,4.403-6.48,0-2.05-4.403-4.18,0,9.72,19.479,5.5,0,2.15-19.479m-19.03,15.707c-0.46,0.477-1.21,0.717-2.24,0.717h-2.05l-1.12-5.839h2.14c0.98,0,1.78,0.258,2.42,0.771s1.05,1.246,1.26,2.202c0.22,0.956,0,1.673-0.41,2.149m1.91-6.699c-1.44-1.018-3.28-1.526-5.59-1.526h-2.19l-1.46-7.482h-4.24l3.81,19.479h6.61c1.03,0,1.97-0.12,2.77-0.36,0.79-0.24,1.46-0.6,1.96-1.09,0.52-0.49,0.89-1.09,1.09-1.817,0.23-0.726,0.23-1.584,0-2.574-0.41-2.07-1.32-3.615-2.76-4.63m-20.08-9.008-4.36,10.48,0,0.05,7.76,8.939,4.61,0-7.92-8.804,4.59-10.667-4.68,0zm-11.11,0,3.79,19.479,4.24,0-3.79-19.479m-9.47,11.621c0.23,0.778,0.23,1.526,0,2.243,0,0.716-0.27,1.325-0.59,1.83-0.32,0.504-0.87,0.757-1.64,0.757-0.5,0-0.96-0.114-1.37-0.347-0.41-0.23-0.78-0.533-1.07-0.915-0.32-0.378-0.57-0.81-0.8-1.286-0.23-0.477-0.41-0.963-0.57-1.459-0.23-0.495-0.3-0.978-0.41-1.446,0-0.468-0.23-0.89-0.25-1.262,0-0.37-0.23-0.799-0.23-1.285,0-0.488-0.23-0.983-0.23-1.487v-1.5c0-0.495,0.23-0.933,0.3-1.312,0.22-0.381,0.38-0.691,0.7-0.928,0.3-0.24,0.73-0.359,1.26-0.359,0.77,0,1.44,0.247,1.94,0.742,0.52,0.495,0.96,1.098,1.3,1.805s0.59,1.451,0.8,2.229c0.23,0.778,0.34,1.44,0.45,1.99,0,0.548,0.23,1.212,0.32,1.99m-8.92-11.158c-0.84,0.575-1.48,1.335-1.87,2.282-0.41,0.946-0.59,2.021-0.59,3.224,0,1.22,0.23,2.457,0.36,3.715,0.25,1.257,0.6,2.484,1.07,3.689,0.46,1.203,1.1,2.273,1.85,3.211,0.78,0.935,1.71,1.695,2.79,2.285,1.07,0.58,2.35,0.87,3.78,0.87,1.49,0,2.63-0.29,3.5-0.87,0.84-0.59,1.46-1.35,1.84-2.299,0.39-0.947,0.6-2.026,0.6-3.236,0-1.214-0.23-2.448-0.37-3.703-0.23-1.237-0.59-2.46-1.07-3.662-0.46-1.203-1.07-2.278-1.83-3.224-0.77-0.947-1.68-1.707-2.76-2.282-1.09-0.575-2.37-0.863-3.83-0.863-1.44,0-2.6,0.288-3.47,0.863m-10.84-0.463,2.86,14.751-0.23,0-6.99-14.751-4.13,0-1.25,14.751-0.23,0-2.85-14.751-3.81,0,3.81,19.479,6.39,0,1.14-13.775,0.23,0,6.45,13.775,6.3,0-3.79-19.479m-28.24,0,1.59,8.198-5.61,0-1.6-8.198-4.24,0,3.79,19.479,4.24,0-1.48-7.541,5.61,0,1.51,7.541,4.24,0-3.81-19.479m-22.04,16.317-0.23,0-6.18-13.534,7.28,0-0.94,13.534zm-11.89-16.317,9.74,19.479,5.5,0,2.15-19.479m158.45-21.99,5.06,0-0.84,9.713-4.22-9.713zm5.29-4.589-7.14,0-2.47-5.693-6.13,0,12.16,26.118,7.39,0,2.92-26.118-6.3,0m-23.34,21.171-1.16-6.513,2.14,0c1.07,0,1.94,0.279,2.6,0.838,0.64,0.559,1.08,1.382,1.26,2.471,0.41,2.133-0.55,3.204-2.83,3.204h-2.01zm-1.87-11.565-1.69-9.606-6.11,0,4.6,26.115,8.56,0c1.28,0,2.42-0.159,3.47-0.497,1.03-0.333,1.87-0.833,2.56-1.495,0.68-0.666,1.16-1.501,1.43-2.507,0.28-1.009,0.3-2.191,0-3.542-0.25-1.424-0.68-2.66-1.3-3.717-0.59-1.054-1.37-1.935-2.28-2.633-0.94-0.698-1.98-1.228-3.19-1.584-1.19-0.356-2.51-0.534-3.95-0.534m-24.44,16.509,15.95,0-0.94-5.339-9.88,0-0.86-4.765,7.39,0-0.87-5.088-7.41,0-0.98-5.586,10.26,0-0.93-5.337-16.36,0m-8.81,0-6.14,0,3.63,20.459-6.37,0,1.01,5.656,18.82,0-1-5.656-6.32,0m-34.27-16.012,6.86,9.073-3.97,8.148,0.83,4.447,16.79,0-0.94-5.339-9.49,0,3.52-7.22-6.21-8.219,10.08,0-0.93-5.337-17.32,0m-15.17,2.989,3.14,0,3.61,20.174-3.17,0,0.5,2.952,12.48,0-0.52-2.952-3.17,0-3.59-20.174,3.17,0-0.52-2.989-12.46,0m-8.85,21.171-1.14-6.513,2.12,0c1.07,0,1.94,0.279,2.6,0.838s1.07,1.382,1.28,2.471c0.39,2.133-0.57,3.204-2.85,3.204h-2.01zm-1.87-11.565-1.67-9.606-6.14,0,4.61,26.115,8.56,0c1.28,0,2.42-0.159,3.47-0.497,1.02-0.333,1.89-0.833,2.55-1.495,0.69-0.666,1.17-1.501,1.44-2.507,0.27-1.009,0.3-2.191,0-3.542-0.25-1.424-0.68-2.66-1.3-3.717-0.59-1.054-1.35-1.935-2.28-2.633-0.94-0.698-1.99-1.228-3.17-1.584-1.21-0.356-2.54-0.534-3.97-0.534m-23.92,0.676,5.07,0-0.85,9.713-4.22-9.713zm5.3-4.589-7.15,0-2.46-5.693-6.12,0,12.14,26.118,7.4,0,2.94-26.118-6.3,0"/><path fill="#d22027" d="M478.36,135.88,359.04,125.05,470.76,108.07"/></g></svg>