<!-- Created with Inkscape (http://www.inkscape.org/) -->
<svg xmlns:rdf="http://www.w3.org/1999/02/22-rdf-syntax-ns#" xmlns="http://www.w3.org/2000/svg" height="200" width="200" version="1.1" xmlns:cc="http://creativecommons.org/ns#" xmlns:dc="http://purl.org/dc/elements/1.1/">
	<metadata>
		<rdf:RDF>
			<cc:Work rdf:about="">
				<dc:format>image/svg+xml</dc:format>
				<dc:type rdf:resource="http://purl.org/dc/dcmitype/StillImage"/>
				<dc:title/>
			</cc:Work>
		</rdf:RDF>
	</metadata>
	<path fill-rule="nonzero" fill="#49b6e6" d="M100.01,0c-55.23,0-100.01,44.78-100.01,100,0,55.23,44.78,100,100.01,100,55.22,0,99.99-44.77,99.99-100,0-55.22-44.77-100-99.99-100zm0,23.63c42.17,0,76.37,34.19,76.37,76.37s-34.2,76.38-76.37,76.38c-42.19,0-76.37-34.2-76.37-76.38s34.18-76.37,76.37-76.37z"/>
	<path fill="#49b6e6" d="m50.14,43.33c-1.28,0.9-2.68,2.2-3.89,3.45l0.26,103.68h26.92v-19.42h-11.87v-26.5h9.91v-18.49h-9.91v-23.13h10.63l0.1-19.63zm35.84,0-8.5,107.13,39.42,0-8.76-106.81zm64.4,0.16-22.34,0.25-7.65,106.72,14.02,0,1.36-19.24,8.07,0,1.12,19.24,11.23,0c1.21-1.25,2.16-2.38,3.19-3.72zm-9.44,22.59,2.33,47.24-7.31,0,3.72-47.24zm-42.64,0,2.57,67.03-7.12,0,3.48-67.03z"/>
	<path stroke-linejoin="miter" d="m123.9,185.43c0,1.43-1.16,2.59-2.6,2.59-1.43,0-2.59-1.16-2.59-2.59,0-1.44,1.16-2.59,2.59-2.59,1.44,0,2.6,1.15,2.6,2.59z" fill-rule="nonzero" stroke="#FFF" stroke-linecap="square" stroke-miterlimit="4" stroke-width="1.24174" fill="#FFF"/>
	<path stroke-linejoin="miter" d="m166.67,38.52c0,1.43-1.16,2.59-2.6,2.59-1.43,0-2.59-1.16-2.59-2.59,0-1.44,1.16-2.6,2.59-2.6,1.44,0,2.6,1.16,2.6,2.6z" fill-rule="nonzero" stroke="#FFF" stroke-linecap="square" stroke-miterlimit="4" stroke-width="1.24174" fill="#FFF"/>
	<path stroke-linejoin="miter" d="m38.35,38.52c0,1.43-1.16,2.59-2.59,2.59-1.44,0-2.6-1.16-2.6-2.59,0-1.44,1.16-2.6,2.6-2.6,1.43,0,2.59,1.16,2.59,2.6z" fill-rule="nonzero" stroke="#FFF" stroke-linecap="square" stroke-miterlimit="4" stroke-width="1.24174" fill="#FFF"/>
	<path stroke-linejoin="miter" d="m145.11,178.12-4.13-3.72,0.98,5.47,3.15-1.75m7.86,2.1-3.43,1.91-2.32-2.1-4.76,2.64,0.56,3.08-3.33,1.86-2.39-15.46,3.8-2.11,11.87,10.18m17.53-14.88-2.81,2.5-6.51-7.35,2.19,6.57-1.95,1.74-6.27-2.98,6.51,7.36-2.67,2.36-9.73-10.97,3.29-2.91,7.35,3.31-2.41-7.69,3.29-2.91,9.72,10.97m13.86-19.41-2.01,3.04-11.84-0.35,8.41,5.55-1.9,2.89-12.25-8.08,2.49-3.77,9.96,0.16-7.02-4.63,1.91-2.89,12.25,8.08m8.44-20.86-1.28,3.56-6.09-2.17-1.88,5.25,6.08,2.19-1.27,3.56-13.82-4.96,1.28-3.56,5.05,1.81,1.89-5.25-5.06-1.81,1.28-3.57,13.82,4.95m3.19-19.97-1.52,11.93-2.81-0.36-4.08-5.75-4.88,4.44-2.76-0.35,1.45-11.44,2.82,0.36-0.86,6.74,4.41-4.07,0.75,0.1,3.73,5.36,0.94-7.32,2.81,0.36m-12.85-19.08,0.34,4.58,11.81-0.86,0.27,3.76-11.8,0.87,0.33,4.57-2.83,0.2-0.95-12.91,2.83-0.21m8.28-15.56,2.17,8.32-2.52,0.65-0.61-2.32-9.16,2.39,0.61,2.33-2.51,0.66-2.18-8.31,2.52-0.66,0.6,2.33,9.16-2.4-0.6-2.33,2.52-0.66m-11.44-12.02-3.95,3.91,5.52-0.66-1.57-3.25m2.55-7.72,1.7,3.52-2.22,2.21,2.37,4.89,3.1-0.37,1.66,3.43-15.56,1.5-1.9-3.92,10.85-11.26" fill-rule="nonzero" stroke="#FFF" stroke-linecap="square" stroke-miterlimit="4" stroke-width="1.24174" fill="#FFF"/>
	<path stroke-linejoin="miter" d="m15.82,60.68,8.55,1.11-5.79-6.39-2.76,5.28m-4.76,3,7.23-13.81,10.39,11.79-2.02,3.85-15.6-1.83m-5.72,19.54,0.95-3.67,6.26,1.61,1.39-5.41-6.25-1.61,0.93-3.66,14.21,3.66-0.94,3.66-5.2-1.34-1.39,5.41,5.2,1.34-0.95,3.66-14.21-3.65m-1.08,24.51,0-3.76,9.83,0.1-6.36-2.75,0-2.61,6.39-2.69-9.82-0.1,0-3.57,14.67,0.1,0,4.4-7.39,3.26,7.35,3.33,0,4.4-14.67-0.1m7.14,18.4c0.52,0.24,1.09,0.39,1.72,0.42,0.64,0,1.35-0.1,2.15-0.26,0.86-0.2,1.55-0.48,2.11-0.82,0.56-0.35,0.97-0.73,1.27-1.14,0.29-0.41,0.49-0.86,0.56-1.32,0.1-0.47,0-0.93-0.1-1.4-0.11-0.46-0.31-0.88-0.58-1.25-0.25-0.37-0.62-0.68-1.09-0.93-0.44-0.23-1-0.37-1.68-0.42-0.68-0.1-1.42,0-2.25,0.24-0.85,0.2-1.55,0.48-2.11,0.81-0.53,0.35-0.96,0.73-1.26,1.13-0.3,0.42-0.48,0.86-0.56,1.33-0.1,0.47-0.1,0.94,0.1,1.41,0.12,0.48,0.32,0.9,0.6,1.28,0.29,0.39,0.66,0.69,1.13,0.92m4.79,3.99c-2.26,0.55-4.23,0.35-5.89-0.63-1.65-0.97-2.76-2.61-3.32-4.91-0.57-2.29-0.33-4.25,0.68-5.87,1.02-1.64,2.67-2.73,4.94-3.28,2.29-0.57,4.26-0.35,5.9,0.62,1.66,0.97,2.76,2.61,3.32,4.9,0.56,2.28,0.34,4.24-0.68,5.88-1.01,1.63-2.65,2.73-4.95,3.29m2.74,21.46-2.19-4.09,3.11-6.63-1.36-0.27-4.24,2.26-1.78-3.35,12.95-6.9,1.78,3.33-5.86,3.13,8.33,1.5,2.06,3.87-8.68-1.86-4.12,9.01m17,6.26c0.31-0.27,0.5-0.59,0.58-0.95,0.1-0.37,0.1-0.71-0.1-1-0.14-0.4-0.32-0.76-0.56-1.05-0.23-0.29-0.55-0.67-0.96-1.15l-0.42-0.49-3.32,2.88,0.71,0.81c0.42,0.5,0.79,0.87,1.13,1.13,0.32,0.27,0.68,0.43,1.04,0.49,0.32,0.1,0.62,0,0.91-0.1,0.29-0.11,0.61-0.3,0.92-0.57m2.64,2.89c-0.5,0.43-1.07,0.76-1.69,1s-1.24,0.33-1.84,0.29c-0.82-0.1-1.58-0.26-2.27-0.62-0.7-0.35-1.39-0.92-2.1-1.73l-1.53-1.78-3.62,3.12-2.47-2.85,11.08-9.61,4.08,4.7c0.61,0.71,1.06,1.36,1.36,1.94,0.29,0.59,0.49,1.18,0.57,1.77,0.1,0.69,0,1.36-0.24,1.99-0.25,0.63-0.7,1.22-1.33,1.78m7.4,11.43,1.64-5.32-4.56,3.19,2.92,2.13m1.39,8.01-3.16-2.31,0.92-3-4.39-3.2-2.57,1.8-3.08-2.25,13.02-8.66,3.52,2.57-4.26,15.05m21.61-2-4.15-1.93-4.98,10.73-3.43-1.59,4.97-10.73-4.15-1.93,1.19-2.58,11.75,5.46-1.2,2.57m10.91,15.22-8.37-1.92,0.59-2.54,2.34,0.54,2.11-9.23-2.34-0.53,0.58-2.54,8.37,1.92-0.58,2.53-2.35-0.53-2.1,9.24,2.33,0.52-0.58,2.54m16.98-3.51-1.56-5.34-2.05,5.17,3.61,0.17m5.56,5.92-3.9-0.18-0.87-3.01-5.43-0.25-1.16,2.91-3.8-0.18,6.08-14.4,4.36,0.2,4.72,14.91" fill-rule="nonzero" stroke="#FFF" stroke-linecap="square" stroke-miterlimit="4" stroke-width="1.24174" fill="#FFF"/>
	<path stroke-linejoin="miter" d="m61.48,29.09-9.26,6.26-8.67-12.8,9.27-6.26,1.68,2.48-5.98,4.03,1.49,2.22,5.55-3.76,1.67,2.48-5.54,3.76,2.13,3.16,5.99-4.04,1.67,2.47m14.02-6.06-8.36,3.45-1.04-2.53,2.34-0.97-3.81-9.22-2.34,0.97-1.04-2.54,8.37-3.45,1.04,2.54-2.34,0.96,3.8,9.22,2.34-0.96,1.04,2.53m13.38-13.61c-0.1-0.43-0.24-0.78-0.52-1.05-0.28-0.28-0.58-0.46-0.91-0.53-0.43-0.1-0.85-0.13-1.24-0.1-0.39,0.1-0.91,0.11-1.57,0.22l-0.67,0.1,0.71,4.57,1.13-0.17c0.67-0.1,1.21-0.23,1.63-0.38,0.43-0.16,0.77-0.38,1.02-0.67,0.22-0.25,0.36-0.55,0.42-0.86,0.1-0.33,0.1-0.71,0-1.15m4.07-0.72c0.11,0.68,0.1,1.36-0.1,2.06-0.14,0.68-0.4,1.29-0.77,1.79-0.52,0.71-1.12,1.27-1.83,1.7-0.69,0.42-1.6,0.72-2.71,0.89l-2.46,0.39,0.78,4.97-3.94,0.61-2.39-15.26,6.48-1.02c0.98-0.15,1.8-0.2,2.5-0.13,0.69,0.1,1.32,0.22,1.89,0.47,0.68,0.31,1.23,0.75,1.64,1.33,0.44,0.58,0.72,1.31,0.85,2.2m20.88,11.55-3.97-0.28,0.48-6.79-5.88-0.41-0.48,6.79-3.98-0.28,1.09-15.42,3.98,0.28-0.4,5.64,5.87,0.41,0.4-5.64,3.98,0.28-1.09,15.42m19.66,6.29-3.63-1.28-2.68-12.18-3.51,10.02-3.45-1.22,5.12-14.59,4.49,1.58,2.39,10.23,2.93-8.36,3.45,1.2-5.11,14.6m17.94,11.03-3.27-2.27,3.88-5.6-4.84-3.36-3.88,5.6-3.28-2.27,8.82-12.7,3.27,2.26-3.23,4.66,4.84,3.35,3.23-4.65,3.27,2.27-8.81,12.71" fill-rule="nonzero" stroke="#FFF" stroke-linecap="square" stroke-miterlimit="4" stroke-width="1.24174" fill="#FFF"/>
</svg>
