<?xml version="1.0" encoding="UTF-8" standalone="no"?>
<!-- Created with Inkscape (http://www.inkscape.org/) -->
<svg xmlns:dc="http://purl.org/dc/elements/1.1/" xmlns:cc="http://creativecommons.org/ns#" xmlns:rdf="http://www.w3.org/1999/02/22-rdf-syntax-ns#" xmlns:svg="http://www.w3.org/2000/svg" xmlns="http://www.w3.org/2000/svg" xmlns:sodipodi="http://sodipodi.sourceforge.net/DTD/sodipodi-0.dtd" xmlns:inkscape="http://www.inkscape.org/namespaces/inkscape" width="96" height="96" id="svg2" sodipodi:version="0.32" inkscape:version="0.46" version="1.0" sodipodi:docname="sd.svg" inkscape:output_extension="org.inkscape.output.svg.inkscape">
  <defs id="defs4">
    <inkscape:perspective sodipodi:type="inkscape:persp3d" inkscape:vp_x="0 : 526.18109 : 1" inkscape:vp_y="0 : 1000 : 0" inkscape:vp_z="744.09448 : 526.18109 : 1" inkscape:persp3d-origin="372.04724 : 350.78739 : 1" id="perspective10"/>
    <inkscape:perspective id="perspective2390" inkscape:persp3d-origin="372.04724 : 350.78739 : 1" inkscape:vp_z="744.09448 : 526.18109 : 1" inkscape:vp_y="0 : 1000 : 0" inkscape:vp_x="0 : 526.18109 : 1" sodipodi:type="inkscape:persp3d"/>
  </defs>
  <sodipodi:namedview id="base" pagecolor="#ffffff" bordercolor="#666666" borderopacity="1.0" gridtolerance="10000" guidetolerance="10" objecttolerance="10" inkscape:pageopacity="0.0" inkscape:pageshadow="2" inkscape:zoom="5.6" inkscape:cx="58.92147" inkscape:cy="48.975251" inkscape:document-units="px" inkscape:current-layer="layer4" showgrid="false" inkscape:window-width="1280" inkscape:window-height="714" inkscape:window-x="0" inkscape:window-y="52"/>
  <metadata id="metadata7">
    <rdf:RDF>
      <cc:Work rdf:about="">
        <dc:format>image/svg+xml</dc:format>
        <dc:type rdf:resource="http://purl.org/dc/dcmitype/StillImage"/>
      </cc:Work>
    </rdf:RDF>
  </metadata>
  <g inkscape:groupmode="layer" id="layer5" inkscape:label="back1" style="display:inline">
    <path style="fill:#ecd9c8;fill-opacity:1;fill-rule:evenodd;stroke:#ecd9c8;stroke-width:1px;stroke-linecap:butt;stroke-linejoin:miter;stroke-opacity:1" d="M 0.17857162,0.5357139 L -0.53571438,98.571433 L 100.71429,98.571433 L 100.17857,0.5357139 L 0.17857162,0.5357139 z" id="path2420"/>
  </g>
  <g inkscape:groupmode="layer" id="layer4" inkscape:label="back" style="display:inline">
    <path style="fill:#441c8e;fill-opacity:1;fill-rule:evenodd;stroke:#441c8e;stroke-width:1.01537251px;stroke-linecap:butt;stroke-linejoin:miter;stroke-opacity:1" d="M 47.246421,83.307801 L 52.424727,88.283657 C 54.22464,80.240523 60.307686,72.702261 71.85033,66.597252 C 81.7023,60.096195 87.203239,54.471985 92.57109,38.65675 L 87.943593,34.571082 C 85.085879,43.797257 80.066532,53.512245 71.818193,59.278014 C 62.175232,68.05374 49.036556,72.032627 47.246421,83.307801 z" id="path2413" sodipodi:nodetypes="ccccccc"/>
    <path style="fill:#441c8e;fill-opacity:1;fill-rule:evenodd;stroke:#441c8e;stroke-width:1.11002576px;stroke-linecap:butt;stroke-linejoin:miter;stroke-opacity:1" d="M 31.483583,73.437503 L 37.657176,78.427133 C 39.854433,70.406323 47.177032,62.908263 61.028639,56.864813 C 72.858159,50.418614 80.756559,45.363375 87.266419,29.600058 L 81.533799,25.501437 C 78.097559,35.652025 70.888029,44.267562 61.028649,49.558567 C 49.437407,58.276269 33.686124,62.190414 31.483583,73.437503 z" id="path2422" sodipodi:nodetypes="ccccccc"/>
    <path style="fill:#441c8e;fill-opacity:1;fill-rule:evenodd;stroke:#441c8e;stroke-width:1.05280507px;stroke-linecap:butt;stroke-linejoin:miter;stroke-opacity:1" d="M 29.490687,66.675013 L 35.038203,71.670023 C 37.012626,63.640553 43.592627,56.134374 56.039508,50.084398 C 66.669369,43.631229 73.766769,38.570523 79.616449,22.790165 L 74.465189,18.687113 C 71.377419,28.848675 64.899029,37.473527 56.039518,42.770252 C 45.623773,51.497379 31.469862,55.415751 29.490687,66.675013 z" id="path2424" sodipodi:nodetypes="ccccccc"/>
    <path style="fill:#441c8e;fill-opacity:1;fill-rule:evenodd;stroke:#441c8e;stroke-width:1.01917875px;stroke-linecap:butt;stroke-linejoin:miter;stroke-opacity:1" d="M 25.188158,60.974361 L 30.383664,65.972543 C 32.232804,57.937979 38.395277,50.427046 50.052361,44.373226 C 60.007709,37.915962 66.654749,32.852045 72.133239,17.061671 L 67.308849,12.956014 C 64.417009,23.124026 58.349719,31.754352 50.052371,37.054439 C 40.297539,45.787105 27.041749,49.707966 25.188158,60.974361 z" id="path2426" sodipodi:nodetypes="ccccccc"/>
    <path style="fill:#441c8e;fill-opacity:1;fill-rule:evenodd;stroke:#441c8e;stroke-width:1.03051174px;stroke-linecap:butt;stroke-linejoin:miter;stroke-opacity:1" d="M 16.265257,54.898335 L 21.578086,59.895462 C 23.468974,51.862602 29.770616,44.353275 41.690936,38.300749 C 51.871102,31.844865 58.668249,26.78203 64.270459,10.995032 L 59.337119,6.8902529 C 56.379983,17.056091 50.175661,25.684572 41.690946,30.983526 C 31.715834,39.714325 18.160704,43.634349 16.265257,54.898335 z" id="path2428" sodipodi:nodetypes="ccccccc"/>
    <path style="fill:#ecd9c8;fill-opacity:1;fill-rule:evenodd;stroke:#ecd9c8;stroke-width:1px;stroke-linecap:butt;stroke-linejoin:miter;stroke-opacity:1" d="M 54.821429,11.607143 L 83.392859,41.964286 L 84.107149,41.071429 L 52.678572,7.6785709 L 54.821429,11.607143 z" id="path2434" sodipodi:nodetypes="ccccc"/>
    <path style="fill:#ecd9c8;fill-opacity:1;fill-rule:evenodd;stroke:#ecd9c8;stroke-width:1.17749572px;stroke-linecap:butt;stroke-linejoin:miter;stroke-opacity:1;display:inline" d="M 57.044502,3.4103979 L 92.505309,36.926046 L 94.156429,23.127976 L 71.131669,3.3143349 L 57.044502,3.4103979 z" id="path2436" sodipodi:nodetypes="ccccc"/>
  </g>
  <g inkscape:label="Layer 1" inkscape:groupmode="layer" id="layer1" style="display:inline">
    <path style="fill:#f8010a;fill-opacity:1;fill-rule:evenodd;stroke:#f8010a;stroke-width:1px;stroke-linecap:butt;stroke-linejoin:miter;stroke-opacity:1" d="M 5.8928576,47.678571 L 43.928572,85.535713 C 45.88167,74.988813 52.573664,69.180803 60.178569,64.285713 C 69.352479,58.678474 78.381569,52.914355 81.964289,41.25 L 46.785715,4.2857139 C 43.198834,11.492184 39.923204,18.787582 26.607143,23.214286 C 16.13039,28.346594 10.213008,37.336831 5.8928576,47.678571 z" id="path2402" sodipodi:nodetypes="ccccccc"/>
    <path style="fill:#441c8e;fill-opacity:1;fill-rule:evenodd;stroke:#441c8e;stroke-width:1px;stroke-linecap:butt;stroke-linejoin:miter;stroke-opacity:1" d="M -0.17857138,61.785714 L 10.178572,61.428571 L 47.321429,98.214293 L -0.35714238,98.035713 L -0.17857138,61.785714 z" id="path2415"/>
    <path style="fill:#f8010a;fill-opacity:1;fill-rule:evenodd;stroke:#f8010a;stroke-width:1px;stroke-linecap:butt;stroke-linejoin:miter;stroke-opacity:1" d="M 89.285719,63.392863 L 53.928572,98.571433 L 101.07143,97.857143 L 100.53572,63.214293 L 89.285719,63.392863 z" id="path2417"/>
  </g>
  <g inkscape:groupmode="layer" id="layer3" inkscape:label="flag" style="display:inline"/>
  <g inkscape:groupmode="layer" id="layer2" inkscape:label="logo" style="display:inline">
    <path style="fill:#ecd9c8;fill-opacity:1;fill-rule:evenodd;stroke:#ecd9c8;stroke-width:1px;stroke-linecap:butt;stroke-linejoin:miter;stroke-opacity:1" d="M 40.141247,35.072846 L 36.605713,39.618532 L 36.353175,50.982748 L 40.141247,50.982748 L 40.141247,45.931986 L 70.162649,46.184524 L 70.193289,42.64899 L 40.06728,42.279156 L 40.141247,35.072846 z" id="path2397" sodipodi:nodetypes="ccccccccc"/>
    <path style="fill:#ecd9c8;fill-opacity:1;fill-rule:evenodd;stroke:#ecd9c8;stroke-width:1px;stroke-linecap:butt;stroke-linejoin:miter;stroke-opacity:1" d="M 35.595561,27.938643 C 58.330051,21.848165 70.138919,54.880268 41.1514,58.811431 L 41.1514,69.670573 L 44.686934,69.165493 L 44.686934,61.336812 C 72.904149,58.424568 65.917389,20.627845 40.204382,25.855204 C 38.210316,26.288563 36.659431,27.04155 35.595561,27.938643 z" id="path2399" sodipodi:nodetypes="ccccccc"/>
  </g>
</svg>