<?xml version="1.0" encoding="UTF-8" standalone="no"?>
<!-- Generator: Adobe Illustrator 16.0.0, SVG Export Plug-In . SVG Version: 6.00 Build 0)  -->

<svg
   xmlns:dc="http://purl.org/dc/elements/1.1/"
   xmlns:cc="http://creativecommons.org/ns#"
   xmlns:rdf="http://www.w3.org/1999/02/22-rdf-syntax-ns#"
   xmlns:svg="http://www.w3.org/2000/svg"
   xmlns="http://www.w3.org/2000/svg"
   xmlns:sodipodi="http://sodipodi.sourceforge.net/DTD/sodipodi-0.dtd"
   xmlns:inkscape="http://www.inkscape.org/namespaces/inkscape"
   version="1.1"
   id="Ebene_1"
   x="0px"
   y="0px"
   width="504"
   height="126.47664"
   viewBox="0 0 504 126.47664"
   enable-background="new 0 0 240.855 113.021"
   xml:space="preserve"
   inkscape:version="0.48.2 r9819"
   sodipodi:docname="Nea Dimokratia Logo small.svg"><metadata
   id="metadata3680"><rdf:RDF><cc:Work
       rdf:about=""><dc:format>image/svg+xml</dc:format><dc:type
         rdf:resource="http://purl.org/dc/dcmitype/StillImage" /><dc:title></dc:title></cc:Work></rdf:RDF></metadata><defs
   id="defs3678"><clipPath
     clipPathUnits="userSpaceOnUse"
     id="clipPath3029"><path
       inkscape:connector-curvature="0"
       d="m 554.16,721.01 -34.92,0 0,36 34.92,0 0,-36 z"
       clip-rule="evenodd"
       id="path3031" /></clipPath><clipPath
     clipPathUnits="userSpaceOnUse"
     id="clipPath3035"><path
       inkscape:connector-curvature="0"
       d="m 0,841.98 595.2,0 L 595.2,0 0,0 0,841.98 z"
       id="path3037" /></clipPath><clipPath
     clipPathUnits="userSpaceOnUse"
     id="clipPath3605"><path
       inkscape:connector-curvature="0"
       d="m 12.496,12.496 1207.559,0 0,810.709 -1207.559,0 0,-810.709 z"
       id="path3607" /></clipPath><clipPath
     clipPathUnits="userSpaceOnUse"
     id="clipPath3589"><path
       inkscape:connector-curvature="0"
       d="m 12.496,12.496 1207.559,0 0,810.709 -1207.559,0 0,-810.709 z"
       id="path3591" /></clipPath><clipPath
     clipPathUnits="userSpaceOnUse"
     id="clipPath622"><path
       inkscape:connector-curvature="0"
       d="m 12.496,12.496 1207.559,0 0,810.709 -1207.559,0 0,-810.709 z"
       id="path624" /></clipPath><clipPath
     clipPathUnits="userSpaceOnUse"
     id="clipPath606"><path
       inkscape:connector-curvature="0"
       d="m 12.496,12.496 1207.559,0 0,810.709 -1207.559,0 0,-810.709 z"
       id="path608" /></clipPath></defs><sodipodi:namedview
   pagecolor="#ffffff"
   bordercolor="#666666"
   borderopacity="1"
   objecttolerance="10"
   gridtolerance="10"
   guidetolerance="10"
   inkscape:pageopacity="0"
   inkscape:pageshadow="2"
   inkscape:window-width="932"
   inkscape:window-height="721"
   id="namedview3676"
   showgrid="false"
   fit-margin-top="2"
   fit-margin-left="2"
   fit-margin-bottom="2"
   fit-margin-right="2"
   inkscape:zoom="1"
   inkscape:cx="171.436"
   inkscape:cy="43.106007"
   inkscape:window-x="1920"
   inkscape:window-y="0"
   inkscape:window-maximized="0"
   inkscape:current-layer="Ebene_1" />



















<g
   id="g578"
   transform="matrix(3.2070626,0,0,-3.2070626,61.304361,87.261544)"><path
     inkscape:connector-curvature="0"
     d="m 0,0 -0.054,0 0,-8.893 -1.882,0 0,12.478 1.775,0 5.755,-8.894 0.053,0 0,8.894 1.883,0 0,-12.478 -1.774,0 L 0,0 z"
     style="fill:#1959a6;fill-opacity:1;fill-rule:nonzero;stroke:none"
     id="path580" /></g><g
   id="g582"
   transform="matrix(3.2070626,0,0,-3.2070626,92.608833,75.764564)"><path
     inkscape:connector-curvature="0"
     d="m 0,0 8.015,0 0,-1.757 -6.133,0 0,-3.605 5.235,0 0,-1.649 -5.235,0 0,-3.712 6.133,0 0,-1.755 -8.015,0 L 0,0 z"
     style="fill:#1959a6;fill-opacity:1;fill-rule:nonzero;stroke:none"
     id="path584" /></g><g
   id="g586"
   transform="matrix(3.2070626,0,0,-3.2070626,143.98439,106.81631)"><path
     inkscape:connector-curvature="0"
     d="m 0,0 -4.804,0 -0.969,-2.795 -1.99,0 4.572,12.477 1.577,0 4.555,-12.477 -1.972,0 L 0,0 z m -2.438,7.155 -1.828,-5.507 3.728,0 -1.828,5.507 -0.072,0 z"
     style="fill:#1959a6;fill-opacity:1;fill-rule:nonzero;stroke:none"
     id="path588" /></g><g
   id="g590"
   transform="matrix(3.2070626,0,0,-3.2070626,168.36704,75.764564)"><path
     inkscape:connector-curvature="0"
     d="m 0,0 1.579,0 4.554,-12.478 -10.704,0 L 0,0 z m 0.754,-2.527 -2.761,-8.303 5.595,0 -2.762,8.303 -0.072,0 z"
     style="fill:#33bdf2;fill-opacity:1;fill-rule:nonzero;stroke:none"
     id="path592" /></g><g
   id="g594"
   transform="matrix(3.2070626,0,0,-3.2070626,212.80215,98.248634)"><path
     inkscape:connector-curvature="0"
     d="m 0,0 -5.02,0 0,-5.467 -1.884,0 0,12.478 1.884,0 0,-5.362 5.02,0 0,5.362 1.865,0 0,-12.478 L 0,-5.467 0,0 z"
     style="fill:#33bdf2;fill-opacity:1;fill-rule:nonzero;stroke:none"
     id="path596" /></g><g
   id="g598"
   transform="matrix(3.2070626,0,0,-3.2070626,256.33964,90.778104)"><path
     inkscape:connector-curvature="0"
     d="m 0,0 -0.071,0 -2.709,-6.003 -1.579,0 -2.724,6.003 -0.054,0 0,-7.796 -1.882,0 0,12.477 1.792,0 3.694,-8.176 3.641,8.176 1.775,0 0,-12.477 L 0,-7.796 0,0 z"
     style="fill:#33bdf2;fill-opacity:1;fill-rule:nonzero;stroke:none"
     id="path600" /></g><g
   transform="matrix(3.2070626,0,0,-3.2070626,-735.39701,435.84072)"
   id="g602"><g
     id="g604"
     clip-path="url(#clipPath606)"><g
       id="g610"
       transform="translate(321.5776,102.1615)"><path
         inkscape:connector-curvature="0"
         d="m 0,0 c -0.68,-1.54 -2.405,-2.49 -4.072,-2.49 -1.667,0 -3.391,0.95 -4.074,2.49 -0.286,0.664 -0.377,1.4 -0.393,2.333 -0.019,0.198 -0.019,0.429 -0.019,0.682 l 0,0.841 0,0.843 c 0,0.269 0,0.504 0.019,0.699 0.016,0.934 0.107,1.668 0.393,2.332 0.683,1.543 2.407,2.492 4.074,2.492 C -2.405,10.222 -0.68,9.273 0,7.73 0.288,7.066 0.377,6.332 0.396,5.398 0.412,5.203 0.412,4.968 0.412,4.699 l 0,-0.843 0,-0.841 c 0,-0.253 0,-0.484 -0.016,-0.682 C 0.377,1.4 0.288,0.664 0,0 m -4.072,8.358 c -0.915,0 -1.543,-0.43 -1.956,-0.916 -0.485,-0.646 -0.644,-1.02 -0.644,-3.586 0,-2.58 0.159,-2.923 0.644,-3.55 0.413,-0.504 1.041,-0.931 1.956,-0.931 0.916,0 1.58,0.427 1.957,0.931 0.517,0.611 0.644,1.005 0.644,3.55 0,2.53 -0.127,2.979 -0.644,3.586 -0.377,0.486 -1.041,0.916 -1.957,0.916"
         style="fill:#33bdf2;fill-opacity:1;fill-rule:nonzero;stroke:none"
         id="path612" /></g></g></g><g
   id="g614"
   transform="matrix(3.2070626,0,0,-3.2070626,315.68955,96.524514)"><path
     inkscape:connector-curvature="0"
     d="m 0,0 -2.168,-2.563 0,-3.442 -1.883,0 0,12.478 1.883,0 0,-6.204 0.053,0 5.183,6.204 2.221,0 L 1.274,1.561 5.721,-6.005 3.5,-6.005 0,0 z"
     style="fill:#33bdf2;fill-opacity:1;fill-rule:nonzero;stroke:none"
     id="path616" /></g><g
   transform="matrix(3.2070626,0,0,-3.2070626,-735.39701,435.84072)"
   id="g618"><g
     id="g620"
     clip-path="url(#clipPath622)"><g
       id="g626"
       transform="translate(339.6151,104.6926)"><path
         inkscape:connector-curvature="0"
         d="m 0,0 -2.906,0 0,-4.894 -1.883,0 0,12.477 4.555,0 c 1.506,0 2.886,-0.52 3.657,-1.864 C 3.728,5.162 3.924,4.5 3.924,3.728 3.924,2.814 3.569,1.826 2.849,1.11 2.187,0.449 1.237,0 0,0 m -2.906,5.827 0,-4.07 2.832,0 c 0.628,0 1.076,0.179 1.417,0.465 0.483,0.413 0.717,0.988 0.717,1.561 0,1.379 -0.915,2.044 -2.204,2.044 l -2.762,0 z"
         style="fill:#33bdf2;fill-opacity:1;fill-rule:nonzero;stroke:none"
         id="path628" /></g></g></g><g
   id="g630"
   transform="matrix(3.2070626,0,0,-3.2070626,387.98379,106.81631)"><path
     inkscape:connector-curvature="0"
     d="m 0,0 -4.805,0 -0.968,-2.795 -1.991,0 4.574,12.477 1.579,0 4.554,-12.477 -1.974,0 L 0,0 z m -2.438,7.155 -1.829,-5.507 3.73,0 -1.829,5.507 -0.072,0 z"
     style="fill:#33bdf2;fill-opacity:1;fill-rule:nonzero;stroke:none"
     id="path632" /></g><g
   id="g634"
   transform="matrix(3.2070626,0,0,-3.2070626,411.49284,115.78164)"><path
     inkscape:connector-curvature="0"
     d="m 0,0 -1.881,0 0,10.829 -3.444,0 0,1.649 8.767,0 0,-1.649 L 0,10.829 0,0 z"
     style="fill:#33bdf2;fill-opacity:1;fill-rule:nonzero;stroke:none"
     id="path636" /></g><path
   inkscape:connector-curvature="0"
   d="m 428.35943,75.764564 6.0389,0 0,40.017716 -6.0389,0 0,-40.017716 z"
   style="fill:#33bdf2;fill-opacity:1;fill-rule:nonzero;stroke:none"
   id="path638" /><g
   id="g640"
   transform="matrix(3.2070626,0,0,-3.2070626,462.32735,106.81631)"><path
     inkscape:connector-curvature="0"
     d="m 0,0 -4.805,0 -0.966,-2.795 -1.992,0 4.572,12.477 1.577,0 4.555,-12.477 -1.974,0 L 0,0 z m -2.437,7.155 -1.831,-5.507 3.731,0 -1.829,5.507 -0.071,0 z"
     style="fill:#33bdf2;fill-opacity:1;fill-rule:nonzero;stroke:none"
     id="path642" /></g><path
   inkscape:connector-curvature="0"
   d="m 502,124.47663 -23.11009,0 0,-4.06656 23.11009,0 0,4.06656 z"
   style="fill:#33bdf2;fill-opacity:1;fill-rule:nonzero;stroke:none"
   id="path644" /><g
   id="g654"
   transform="matrix(3.2070626,0,0,-3.2070626,75.809264,5.8137264)"><path
     inkscape:connector-curvature="0"
     d="M 0,0 C 0.09,0.019 0.152,0.076 0.189,0.169 0.086,0.153 -0.013,0.208 0,0 m -1.319,0.11 c 0.147,-0.026 0.023,-0.208 0.155,-0.236 0.149,0.088 -0.01,0.274 -0.04,0.374 -0.152,-0.04 -0.303,-0.08 -0.449,-0.14 -0.042,-0.016 -0.228,-0.063 -0.252,-0.139 -0.045,-0.012 -0.089,-0.028 -0.134,-0.04 -0.023,0.012 -0.06,0.018 -0.181,-0.048 -0.035,-0.019 -0.072,-0.029 -0.108,-0.045 -0.005,-0.003 -0.011,-0.005 -0.017,-0.008 -0.04,-0.016 -0.196,-0.057 -0.267,-0.116 -0.069,-0.029 -0.137,-0.068 -0.207,-0.092 -0.032,0.008 -0.077,0.003 -0.188,-0.061 -0.252,-0.139 -0.517,-0.248 -0.784,-0.348 -0.236,-0.087 -0.473,-0.213 -0.707,-0.345 -0.204,0.015 -0.643,-0.338 -0.69,-0.348 0,0 -0.064,-0.103 -0.186,-0.112 0,0 -0.394,-0.232 -0.45,-0.224 l -0.82,-0.411 c -0.097,-0.115 -0.932,-0.49 -1.523,-0.815 -0.014,-0.002 -0.85,-0.409 -1.239,-0.603 -1.52,-0.943 -2.903,-1.774 -3.022,-1.791 -0.582,-0.422 -3.924,-2.332 -3.695,-3.06 0.224,-0.288 0.262,-0.757 0.525,-1.01 0.847,0.16 1.812,0.408 2.612,0.375 -0.569,-0.449 -1.178,-0.835 -1.829,-1.158 -1.786,-1.198 -1.409,-1.122 -1.456,-1.193 -0.044,-0.079 -0.044,-0.38 0.186,-0.783 0.057,-0.067 0.155,-0.192 0.26,-0.263 0.295,-0.119 0.523,-0.059 0.599,-0.038 0.141,0.182 0.359,0.293 0.522,0.449 0.02,-0.103 0.23,-0.122 0.371,-0.148 0.64,0.081 2.445,0.155 2.464,0.111 -0.908,-0.746 -1.98,-1.327 -3.06,-1.904 -0.051,-0.048 -0.715,-0.351 -0.819,-0.597 0.005,0.003 0.009,0 0.014,0 -0.042,-0.107 -0.06,-0.277 0.038,-0.543 0.196,-0.543 0.349,-0.815 0.514,-0.696 0.156,0.113 5.089,3.115 6.039,3.593 0.193,0.659 -0.458,1.036 -0.859,1.342 -0.17,0.09 -2.267,-0.177 -3.397,-0.039 1.324,0.73 2.739,1.371 4.031,2.13 0.044,0.238 0.02,0.351 -0.038,0.559 -0.494,0.61 -0.437,0.584 -0.857,0.67 -1.086,-0.043 -2.263,-0.179 -3.098,-0.187 0.003,0.037 0.157,0.07 0.578,0.416 1.934,1.134 3.075,1.934 3.937,2.424 0.863,0.488 1.475,0.952 1.587,1.002 0.004,-0.047 1.704,0.916 3.071,1.817 0.232,0.124 0.651,0.401 0.845,0.473 -0.085,-0.032 -0.162,-0.048 -0.218,-0.046 0.03,0.022 0.064,0.043 0.092,0.064 -0.009,0.005 -0.021,0.012 -0.03,0.019 0.088,0.008 0.176,0.013 0.164,-0.033 -10e-4,0 -0.005,-0.002 -0.008,-0.004 0.218,0.08 0.474,0.231 0.514,0.269 0.09,0.093 0.156,0.153 0.213,0.208 0.088,0.019 0.194,0.061 0.293,0.111 0.007,-0.008 0.006,-0.018 0.017,-0.026 0.036,0.008 0.067,0.046 0.095,0.084 0.07,0.038 0.121,0.071 0.135,0.087 0.014,0.013 0.023,0.021 0.035,0.032 0.004,-0.002 0.007,0.005 0.009,0 0.003,-0.031 -0.002,-0.059 -0.018,-0.09 0.009,-0.019 0.331,0.188 0.356,0.203 -0.013,0.059 -0.032,0.116 -0.056,0.174 -10e-4,0.014 -0.01,0.031 -0.019,0.045 0.017,0.053 0.026,0.114 0.031,0.201 10e-4,0 0.003,0.002 0.003,0.002 0.15,-0.038 -0.011,-0.253 0.107,-0.319 0.087,0.013 0.142,0.226 0.238,0.174 0.002,-0.029 -0.005,-0.055 -0.017,-0.077 0.009,-0.019 0.282,0.158 0.306,0.167 -0.012,0.053 -0.027,0.103 -0.047,0.15 -0.017,0.122 -0.319,0.256 -0.171,0.411 M 0.859,1.036 C 0.797,1.031 0.773,0.996 0.791,0.926 0.823,0.929 0.855,0.929 0.888,0.929 0.877,0.967 0.868,1 0.859,1.036 M 1.194,0.59 C 1.177,0.702 1.259,0.712 1.232,0.833 1.131,0.831 1.117,0.628 1.194,0.59 m 0.09,0.164 C 1.346,0.693 1.481,0.815 1.401,0.896 1.341,0.87 1.272,0.855 1.284,0.754 M 1.831,1.103 C 1.732,1.046 1.579,1.018 1.547,0.875 1.686,0.723 1.742,1.01 1.886,0.944 1.868,0.996 1.849,1.049 1.831,1.103 M 1.341,1.189 C 1.26,1.194 1.295,1.084 1.222,1.079 1.192,1.202 1.063,1.125 1.002,1.096 1.063,0.645 1.153,1.07 1.248,1.053 1.269,1.018 1.271,0.981 1.253,0.944 1.398,0.95 1.348,1.041 1.341,1.189 M 0.425,0.967 C 0.422,0.931 0.434,0.905 0.454,0.881 0.45,0.9 0.15,0.838 0.267,0.635 0.301,0.578 0.328,0.316 0.224,0.469 0.231,0.521 0.327,0.548 0.268,0.607 0.224,0.628 0.165,0.535 0.145,0.604 0.177,0.657 0.177,0.712 0.138,0.764 -0.078,0.638 -0.093,0.749 -0.113,0.401 -0.177,0.49 -0.287,0.437 -0.306,0.34 -0.33,0.49 -0.207,0.477 -0.17,0.59 -0.273,0.492 -0.291,0.595 -0.39,0.58 -0.341,0.573 -0.436,0.469 -0.583,0.572 -0.602,0.519 -0.6,0.464 -0.576,0.411 -0.639,0.382 -0.702,0.361 -0.769,0.348 -0.783,0.244 -0.639,0.335 -0.664,0.218 -0.791,0.211 -0.792,0.392 -0.941,0.395 -0.954,0.342 -0.95,0.287 -0.933,0.232 -1.108,0.224 -1.046,-0.232 -0.981,-0.391 c 0.192,0.212 0.078,-0.058 0.291,0.043 0.208,0.095 0.006,0.21 0.148,0.287 -0.033,0.119 0.198,0.129 0.193,0.264 0.202,-0.05 0.234,-0.035 0.212,0.145 0.103,0.02 0.2,0.058 0.289,0.118 C 0.004,0.295 0.308,0.342 0.327,0.34 0.331,0.282 0.324,0.227 0.309,0.174 0.5,0.168 0.309,0.533 0.491,0.533 0.457,0.451 0.462,0.371 0.5,0.292 0.821,0.311 0.427,0.685 0.408,0.748 0.489,0.786 0.603,1.008 0.425,0.967 M 0.955,0.471 C 0.898,0.633 1.105,0.731 1.063,0.828 0.926,0.749 0.752,0.607 0.955,0.471 M 0.656,0.622 C 0.603,0.538 0.765,0.495 0.692,0.38 0.756,0.358 0.803,0.38 0.835,0.44 0.723,0.456 0.815,0.675 0.656,0.622"
     style="fill:#f89c0e;fill-opacity:1;fill-rule:nonzero;stroke:none"
     id="path656" /></g><g
   id="g658"
   transform="matrix(3.2070626,0,0,-3.2070626,96.157127,38.026414)"><path
     inkscape:connector-curvature="0"
     d="m 0,0 c 0.091,-0.039 0.164,-0.015 0.215,0.069 -0.162,0.038 0,0.348 -0.236,0.288 C -0.112,0.241 0.121,0.159 0,0 M 1.754,0.916 C 1.602,0.845 1.375,0.823 1.311,0.615 1.494,0.377 1.614,0.792 1.814,0.675 1.794,0.754 1.774,0.837 1.754,0.916 m -2.515,-1.163 c -0.153,-0.011 -0.289,0.082 -0.298,-0.224 0.136,0.019 0.233,0.094 0.298,0.224 M 0.912,0.475 C 0.994,0.372 1.205,0.539 1.098,0.665 1.009,0.637 0.907,0.623 0.912,0.475 M 0.353,0.781 C 0.344,0.831 0.335,0.885 0.326,0.937 0.233,0.94 0.194,0.89 0.212,0.782 0.26,0.781 0.306,0.781 0.353,0.781 M 0.597,0.61 C 0.388,0.51 0.116,0.327 0.395,0.1 0.331,0.343 0.65,0.462 0.597,0.61 M -0.368,0.573 c 0.122,0.042 0.315,0.355 0.049,0.314 C -0.324,0.84 -0.315,0.8 -0.286,0.763 -0.291,0.789 -0.735,0.734 -0.591,0.429 c 0.045,-0.093 0.052,-0.478 -0.08,-0.241 0.016,0.076 0.158,0.103 0.08,0.193 -0.061,0.041 -0.157,-0.09 -0.18,0.01 0.052,0.076 0.057,0.155 0.012,0.237 C -1.093,0.472 -1.103,0.637 -1.175,0.13 -1.254,0.267 -1.425,0.202 -1.464,0.066 -1.48,0.288 -1.301,0.252 -1.234,0.41 -1.395,0.281 -1.412,0.434 -1.554,0.425 -1.485,0.41 -1.638,0.264 -1.838,0.436 -1.873,0.36 -1.878,0.281 -1.85,0.201 -1.944,0.164 -2.041,0.143 -2.138,0.133 -2.172,-0.02 -1.95,0.1 -2.004,-0.073 c -0.183,0.01 -0.163,0.275 -0.381,0.297 -0.025,-0.079 -0.028,-0.158 -0.01,-0.239 -0.255,0.013 -0.22,-0.664 -0.147,-0.905 0.308,0.285 0.109,-0.095 0.434,0.027 0.134,0.05 0.244,0.09 0.346,0.129 0.005,-0.017 0.012,-0.032 0.024,-0.043 -0.004,0.026 -0.42,-0.039 -0.276,-0.323 0.044,-0.083 0.059,-0.446 -0.07,-0.224 0.012,0.071 0.146,0.1 0.07,0.184 -0.058,0.034 -0.145,-0.091 -0.168,0.002 0.048,0.074 0.048,0.148 0.002,0.222 -0.305,-0.155 -0.319,0 -0.374,-0.475 -0.078,0.127 -0.235,0.06 -0.268,-0.066 -0.021,0.204 0.147,0.176 0.206,0.327 -0.147,-0.127 -0.166,0.019 -0.299,0.006 0.058,-0.009 -0.05,-0.124 -0.212,-0.033 0.122,0.051 0.377,0.186 0.402,0.193 -0.01,0.077 -0.025,0.151 -0.049,0.225 -0.011,0.181 -0.434,0.416 -0.2,0.62 0.214,-0.053 0.009,-0.303 0.2,-0.365 0.227,0.112 0.017,0.406 -0.011,0.557 C -3.014,0 -3.239,-0.041 -3.461,-0.108 c -0.079,-0.023 -0.499,-0.076 -0.39,-0.25 0.061,-0.048 0.062,-0.098 0.005,-0.148 -0.102,0.03 -0.114,0.085 -0.028,0.159 -0.232,-0.061 -0.086,0.137 -0.445,-0.021 -0.331,-0.148 -0.675,-0.256 -1.019,-0.349 -0.561,-0.15 -1.131,-0.456 -1.687,-0.694 -1.328,-0.574 -2.345,-0.984 -3.962,-1.759 -0.465,-0.223 -5.217,-2.41 -11.04,-6.274 -1.198,-0.793 -3.828,-2.819 -5.627,-4.347 -0.452,-0.385 -0.938,-0.767 -1.319,-1.242 -0.114,-0.142 -0.247,-0.327 -0.272,-0.525 -0.004,-0.04 -10e-4,-0.066 0.005,-0.092 -0.206,-0.578 -0.146,-1.195 0.186,-1.891 0.183,-0.385 0.861,-0.54 1.203,-0.263 0.877,0.695 1.67,1.53 2.472,2.357 0.063,0.053 0.113,0.101 0.15,0.132 3.438,3.073 7.375,5.454 7.844,5.781 2.037,1.412 6.384,3.716 7.302,4.202 0.369,0.197 1.487,0.678 1.686,0.738 0.423,0.132 0.06,0.079 0.254,0.344 0.325,-0.083 0.676,0.168 1.058,0.31 0.248,0.093 0.5,0.177 0.754,0.249 0.035,0.112 -0.095,0.284 0.006,0.37 -0.092,-0.358 0.887,0.107 0.978,0.188 0.32,0.29 0.448,0.272 0.508,0.752 0.21,-0.064 -0.033,-0.351 0.124,-0.448 0.121,0.011 0.21,0.295 0.338,0.214 10e-4,-0.035 -0.008,-0.069 -0.03,-0.1 0.011,-0.027 0.402,0.194 0.432,0.205 -0.01,0.072 -0.027,0.142 -0.05,0.211 -0.015,0.169 -0.418,0.374 -0.203,0.575 0.201,-0.045 0.015,-0.287 0.196,-0.338 0.21,0.111 0.007,0.378 -0.023,0.522 -0.027,-0.007 -0.052,-0.012 -0.077,-0.02 0.292,0.234 0.415,0.258 0.487,0.729 0.223,-0.075 -0.046,-0.373 0.12,-0.485 0.128,0.012 0.233,0.312 0.367,0.222 0,-0.021 -0.005,-0.042 -0.012,-0.064 -0.005,0.004 -0.007,0.004 -0.012,0.009 -0.03,-0.074 -0.031,-0.148 -0.005,-0.222 -0.086,-0.036 -0.177,-0.057 -0.264,-0.071 -0.031,-0.142 0.174,-0.027 0.128,-0.187 -0.172,0.003 -0.159,0.251 -0.364,0.266 -0.02,-0.074 -0.023,-0.147 -0.004,-0.222 -0.238,0.004 -0.188,-0.629 -0.114,-0.853 0.28,0.274 0.104,-0.083 0.404,0.038 0.29,0.115 0.47,0.185 0.668,0.277 -0.033,0.172 -0.163,0.262 -0.159,0.449 0.273,-0.081 0.318,-0.069 0.304,0.179 0.143,0.022 0.277,0.069 0.403,0.141 -0.216,-0.222 0.204,-0.181 0.23,-0.188 0.001,-0.079 -0.012,-0.151 -0.036,-0.222 0.261,-0.029 0.029,0.486 0.275,0.477 -0.05,-0.113 -0.053,-0.224 -0.005,-0.334 0.439,-0.003 -0.068,0.546 -0.088,0.63 0.079,0.035 0.189,0.195 0.155,0.267 0.09,0.036 0.179,0.071 0.268,0.11 -0.031,0.182 -0.166,0.284 -0.157,0.483 0.29,-0.095 0.335,-0.082 0.328,0.182 0.154,0.02 0.3,0.068 0.437,0.142 -0.239,-0.234 0.21,-0.198 0.239,-0.211 0,-0.081 -0.017,-0.159 -0.045,-0.234 0.278,-0.037 0.043,0.521 0.308,0.503 -0.058,-0.118 -0.062,-0.237 -0.015,-0.359 0.47,-0.012 -0.057,0.587 -0.077,0.681 m -1.998,-0.748 c -0.089,0.067 0.115,0.268 0.184,0.15 -0.005,-0.119 -0.18,-0.028 -0.184,-0.15 m 0.299,-0.489 c -0.081,0.045 -0.165,0.05 -0.251,0.011 0.2,0.089 0.043,0.435 0.275,0.466 0.038,-0.163 0.031,-0.319 -0.024,-0.477 m -6.521,-2.058 c 0.052,0.107 0.159,0.143 0.26,0.188 -0.022,-0.14 -0.121,-0.185 -0.26,-0.188 m 1.458,-0.917 c -0.089,0.069 0.025,0.222 0.137,0.184 0.037,-0.16 -0.112,-0.097 -0.137,-0.184 m 0.3,0.034 c 0.003,0.035 0.003,0.071 0.003,0.109 0.047,0.003 0.091,-0.009 0.131,-0.038 -0.02,-0.071 -0.067,-0.095 -0.134,-0.071 m 2.032,2.545 c 0.089,-0.008 0.077,-0.15 0.026,-0.198 -0.09,0.006 -0.077,0.15 -0.026,0.198 m -0.605,0.026 c -0.029,-0.117 -0.034,-0.237 -0.016,-0.356 -0.097,0.012 -0.195,0.005 -0.286,-0.026 0.041,0.174 0.108,0.367 0.302,0.382 m -0.276,-1.012 c -0.036,-0.016 -0.074,-0.031 -0.11,-0.045 -0.007,0.002 -0.012,0.002 -0.019,0.004 0.003,0.038 0.004,0.078 0.006,0.117 0.05,0.003 0.099,-0.012 0.138,-0.045 -0.003,-0.012 -0.009,-0.022 -0.015,-0.031 m 0.134,-0.619 c 0.059,-0.072 0.124,-0.135 0.196,-0.191 -0.017,-0.219 -0.347,0.029 -0.196,0.191 m 0.178,0.036 c -0.086,0.005 -0.078,0.141 -0.033,0.184 0.085,-0.002 0.076,-0.139 0.033,-0.184 m 0.063,0.728 c 0,0.04 0.009,0.079 0.045,0.108 -0.016,-0.06 -0.004,-0.095 0.024,-0.118 -0.015,0.01 -0.036,0.013 -0.069,0.01 m 0.103,-0.029 c 0.024,-0.008 0.057,-0.008 0.092,-0.008 -0.047,-0.01 -0.073,0 -0.092,0.008 m 0.166,-0.15 c -0.094,0.026 -0.104,0.074 -0.038,0.142 0.01,0 0.019,10e-4 0.029,0.003 0.002,-0.002 0.002,-0.003 0.002,-0.006 0.057,-0.046 0.06,-0.091 0.007,-0.139 m 0.009,0.712 c -0.011,0.126 0.082,0.124 0.182,0.111 0.024,-0.151 -0.126,-0.18 -0.182,-0.111 m 0.161,-0.569 c 0.003,0.017 0.007,0.029 0.012,0.044 0.062,0.016 0.125,0.037 0.187,0.061 -0.012,-0.116 -0.072,-0.114 -0.199,-0.105 m 0.363,1.062 c -0.072,0.108 -0.029,0.34 0.117,0.314 -0.014,-0.134 0.033,-0.346 -0.117,-0.314 m 0.84,0.519 c 0.025,0.133 0.099,0.183 0.222,0.151 -0.007,-0.172 -0.072,-0.166 -0.222,-0.151 m 0.003,-1.378 c -0.086,0.06 0.102,0.25 0.168,0.146 0,-0.115 -0.168,-0.033 -0.168,-0.146 m 0.292,-0.451 c -0.078,0.039 -0.157,0.041 -0.235,0.005 0.185,0.089 0.027,0.408 0.243,0.44 0.041,-0.148 0.038,-0.297 -0.008,-0.445 m 0.168,0.181 c 0.026,0.093 0.083,0.142 0.171,0.146 0.011,-0.062 0.02,-0.124 0.03,-0.183 -0.072,-0.018 -0.139,0 -0.201,0.037 m 0.076,0.444 c -0.035,0.044 -0.043,0.091 -0.032,0.152 0.138,0.027 0.114,-0.092 0.197,-0.153 -0.028,-0.082 -0.143,0.15 -0.165,10e-4 m 1.242,1.086 c 0.031,0.098 0.093,0.147 0.186,0.151 0.01,-0.067 0.019,-0.133 0.027,-0.201 -0.077,-0.011 -0.148,0.005 -0.213,0.05 M -1.787,0 c -0.037,0.045 -0.045,0.098 -0.029,0.159 0.145,0.026 0.119,-0.1 0.207,-0.166 C -1.642,-0.094 -1.762,0.154 -1.787,0 M 1.047,1.105 C 0.931,1.121 0.969,0.955 0.862,0.955 0.832,1.138 0.633,1.045 0.544,1.006 0.575,0.343 0.759,0.95 0.895,0.911 0.922,0.861 0.92,0.808 0.889,0.754 1.103,0.744 1.042,0.885 1.047,1.105 M 0.759,0.243 C 0.749,0.41 0.87,0.415 0.846,0.597 0.697,0.605 0.65,0.31 0.759,0.243 M -2.43,-1.98 c 0.126,0.019 0.216,0.094 0.272,0.218 -0.143,-0.017 -0.271,0.067 -0.272,-0.218 m 1.26,1.35 c -0.088,0 -0.122,-0.049 -0.104,-0.147 0.046,0 0.089,0 0.134,-0.002 -0.01,0.05 -0.02,0.1 -0.03,0.149 m -0.31,-0.55 c -0.083,-0.112 0.136,-0.183 0.028,-0.336 0.087,-0.031 0.153,-0.01 0.2,0.071 -0.153,0.032 -0.009,0.327 -0.228,0.265 m 0.869,0.131 c 0.081,-0.092 0.273,0.068 0.171,0.184 -0.084,-0.028 -0.181,-0.045 -0.171,-0.184 m 0.37,0.142 c 0.179,-0.218 0.279,0.174 0.469,0.066 C 0.206,-0.767 0.185,-0.69 0.165,-0.619 0.024,-0.688 -0.186,-0.712 -0.241,-0.907 M -0.91,-0.931 c -0.191,-0.096 -0.442,-0.277 -0.174,-0.48 -0.066,0.224 0.227,0.343 0.174,0.48 m 0.163,-0.337 c -0.015,0.155 0.099,0.162 0.069,0.332 -0.137,0.005 -0.173,-0.274 -0.069,-0.332 m 0.246,0.812 c -0.107,0.011 -0.07,-0.144 -0.17,-0.147 -0.032,0.173 -0.214,0.079 -0.298,0.044 0.046,-0.621 0.203,-0.05 0.332,-0.081 0.025,-0.048 0.025,-0.098 0,-0.148 0.198,-0.003 0.136,0.126 0.136,0.332"
     style="fill:#b3df5c;fill-opacity:1;fill-rule:nonzero;stroke:none"
     id="path660" /></g></svg>